<svg width="42" height="48" viewBox="0 0 42 48" fill="none" xmlns="http://www.w3.org/2000/svg">
<g clip-path="url(#clip0_1_257)">
<path d="M31.5 4.49994C31.5 2.01556 29.4844 -6.10352e-05 27 -6.10352e-05C24.5156 -6.10352e-05 22.5 2.01556 22.5 4.49994C22.5 6.98431 24.5156 8.99994 27 8.99994C29.4844 8.99994 31.5 6.98431 31.5 4.49994ZM13.2844 16.4531C14.2125 15.5249 15.4781 14.9999 16.8 14.9999C16.9781 14.9999 17.1562 15.0093 17.325 15.0281L14.4 23.8124C13.5281 26.4374 14.5594 29.3249 16.9125 30.7968L24.9937 35.8499L22.6125 44.1749C22.1531 45.7687 23.0812 47.4281 24.675 47.8874C26.2687 48.3468 27.9281 47.4187 28.3875 45.8249L31.0781 36.4124C31.6312 34.4812 30.8344 32.4187 29.1375 31.3593L23.8125 28.0312L26.7094 20.3062L27.1875 21.4593C28.5937 24.8156 31.8656 26.9999 35.5031 26.9999H37.5C39.1594 26.9999 40.5 25.6593 40.5 23.9999C40.5 22.3406 39.1594 20.9999 37.5 20.9999H35.5031C34.2937 20.9999 33.1969 20.2687 32.7375 19.1531L32.1469 17.7468C30.7781 14.4562 28.0125 11.9437 24.6 10.8937L20.0344 9.48744C18.9937 9.16869 17.9062 8.99994 16.8094 8.99994C13.9031 8.99994 11.1094 10.1531 9.05625 12.2156L6.88125 14.3812C5.70937 15.5531 5.70937 17.4562 6.88125 18.6281C8.05312 19.7999 9.95625 19.7999 11.1281 18.6281L13.2937 16.4624L13.2844 16.4531ZM10.05 32.9999H4.5C2.84062 32.9999 1.5 34.3406 1.5 35.9999C1.5 37.6593 2.84062 38.9999 4.5 38.9999H11.025C12.8062 38.9999 14.4187 37.9499 15.1406 36.3281L16.2187 33.8999L15.3281 33.3374C13.6875 32.3156 12.4687 30.8249 11.775 29.1281L10.05 32.9999Z" fill="#0B0A0C"/>
</g>
<defs>
<clipPath id="clip0_1_257">
<rect width="42" height="48" fill="white"/>
</clipPath>
</defs>
</svg>
