<svg width="752" height="645" viewBox="0 0 752 645" fill="none" xmlns="http://www.w3.org/2000/svg">
<path d="M377.52 13.6469C380.683 12.8083 382.567 9.56636 381.727 6.40582C380.888 3.24528 377.644 1.36296 374.481 2.20156C371.318 3.04015 369.434 6.2821 370.273 9.44264C371.113 12.6032 374.357 14.4855 377.52 13.6469Z" fill="#F5F5F5"/>
<path d="M377.814 644.263V640.548H375.999C351.667 640.548 331.873 620.762 331.873 596.448C331.873 572.134 351.667 552.355 375.999 552.355H377.814V483.607C403.308 482.649 423.756 461.622 423.756 435.915C423.756 410.208 403.308 389.188 377.814 388.23V321.847H375.999C351.667 321.847 331.873 302.068 331.873 277.754C331.873 253.44 351.667 233.654 375.999 233.654H377.814V164.906C403.308 163.948 423.756 142.928 423.756 117.221C423.756 91.5141 403.308 70.4869 377.814 69.5292V4.07516C377.814 3.07387 377.001 2.26123 375.999 2.26123C374.997 2.26123 374.184 3.07387 374.184 4.07516V73.1208H375.999C400.331 73.1208 420.125 92.9072 420.125 117.221C420.125 141.535 400.331 161.314 375.999 161.314H374.184V230.062C348.69 231.02 328.242 252.047 328.242 277.754C328.242 303.461 348.69 324.489 374.184 325.439V391.822H375.999C400.331 391.822 420.125 411.601 420.125 435.915C420.125 460.229 400.331 480.015 375.999 480.015H374.184V548.763C348.69 549.721 328.242 570.741 328.242 596.448C328.242 622.155 348.69 643.182 374.184 644.14V644.263H377.814Z" fill="#F5F5F5"/>
<path d="M329.76 118.737H1.92467C0.922628 118.737 0.109375 117.925 0.109375 116.923C0.109375 115.922 0.922628 115.11 1.92467 115.11H329.753C330.755 115.11 331.568 115.922 331.568 116.923C331.568 117.925 330.755 118.737 329.753 118.737H329.76Z" fill="#F5F5F5"/>
<path d="M750.069 279.271H422.241C421.239 279.271 420.426 278.458 420.426 277.457C420.426 276.455 421.239 275.643 422.241 275.643H750.069C751.071 275.643 751.885 276.455 751.885 277.457C751.885 278.458 751.071 279.271 750.069 279.271Z" fill="#F5F5F5"/>
<path d="M750.069 598.559H422.241C421.239 598.559 420.426 597.747 420.426 596.745C420.426 595.744 421.239 594.932 422.241 594.932H750.069C751.071 594.932 751.885 595.744 751.885 596.745C751.885 597.747 751.071 598.559 750.069 598.559Z" fill="#F5F5F5"/>
<path d="M329.76 438.621H1.92467C0.922628 438.621 0.109375 437.809 0.109375 436.807C0.109375 435.806 0.922628 434.993 1.92467 434.993H329.753C330.755 434.993 331.568 435.806 331.568 436.807C331.568 437.809 330.755 438.621 329.753 438.621H329.76Z" fill="#F5F5F5"/>
<path d="M373 91.9999C374.659 91.9999 376 93.3406 376 94.9999V105.5H370V94.9999C370 93.3406 371.341 91.9999 373 91.9999ZM361 97.9999C361 96.3406 362.341 94.9999 364 94.9999C365.659 94.9999 367 96.3406 367 97.9999V105.5H361V97.9999ZM379 97.9999C379 96.3406 380.341 94.9999 382 94.9999C383.659 94.9999 385 96.3406 385 97.9999V107C385 108.659 383.659 110 382 110C380.341 110 379 108.659 379 107V97.9999ZM388 104C388 102.341 389.341 101 391 101C392.659 101 394 102.341 394 104V110C394 111.659 392.659 113 391 113C389.341 113 388 111.659 388 110V104ZM379 112.25V112.194C379.881 112.7 380.903 113 382 113C383.237 113 384.381 112.625 385.338 111.987C386.153 114.322 388.384 116 391 116C392.097 116 393.119 115.709 394 115.194V116C394 120.903 391.647 125.262 388 128V137C388 138.659 386.659 140 385 140H370C368.341 140 367 138.659 367 137V129.65C365.378 128.909 363.887 127.887 362.603 126.603L361.516 125.516C359.266 123.266 358 120.209 358 117.031V114.5C358 111.191 360.691 108.5 364 108.5H372.25C374.322 108.5 376 110.178 376 112.25C376 114.322 374.322 116 372.25 116H367C366.175 116 365.5 116.675 365.5 117.5C365.5 118.325 366.175 119 367 119H372.25C375.981 119 379 115.981 379 112.25Z" fill="#0B0A0C"/>
<path d="M356.462 441.206L373.403 457.022C374.106 457.678 375.034 458.043 376 458.043C376.966 458.043 377.894 457.678 378.597 457.022L395.537 441.206C398.388 438.553 400 434.831 400 430.94V430.397C400 423.843 395.266 418.256 388.806 417.178C384.531 416.465 380.181 417.862 377.125 420.918L376 422.043L374.875 420.918C371.819 417.862 367.469 416.465 363.194 417.178C356.734 418.256 352 423.843 352 430.397V430.94C352 434.831 353.612 438.553 356.462 441.206Z" fill="#0B0A0C"/>
<g clip-path="url(#clip0_1_247)">
<path d="M383.5 577.5C383.5 575.016 381.484 573 379 573C376.516 573 374.5 575.016 374.5 577.5C374.5 579.984 376.516 582 379 582C381.484 582 383.5 579.984 383.5 577.5ZM365.284 589.453C366.212 588.525 367.478 588 368.8 588C368.978 588 369.156 588.009 369.325 588.028L366.4 596.812C365.528 599.437 366.559 602.325 368.912 603.797L376.994 608.85L374.612 617.175C374.153 618.769 375.081 620.428 376.675 620.887C378.269 621.347 379.928 620.419 380.387 618.825L383.078 609.412C383.631 607.481 382.834 605.419 381.137 604.359L375.812 601.031L378.709 593.306L379.187 594.459C380.594 597.816 383.866 600 387.503 600H389.5C391.159 600 392.5 598.659 392.5 597C392.5 595.341 391.159 594 389.5 594H387.503C386.294 594 385.197 593.269 384.737 592.153L384.147 590.747C382.778 587.456 380.012 584.944 376.6 583.894L372.034 582.487C370.994 582.169 369.906 582 368.809 582C365.903 582 363.109 583.153 361.056 585.216L358.881 587.381C357.709 588.553 357.709 590.456 358.881 591.628C360.053 592.8 361.956 592.8 363.128 591.628L365.294 589.462L365.284 589.453ZM362.05 606H356.5C354.841 606 353.5 607.341 353.5 609C353.5 610.659 354.841 612 356.5 612H363.025C364.806 612 366.419 610.95 367.141 609.328L368.219 606.9L367.328 606.337C365.687 605.316 364.469 603.825 363.775 602.128L362.05 606Z" fill="#0B0A0C"/>
</g>
<g clip-path="url(#clip1_1_247)">
<path d="M376 303C389.256 303 400 292.256 400 279C400 265.744 389.256 255 376 255C362.744 255 352 265.744 352 279C352 292.256 362.744 303 376 303ZM376 267C377.247 267 378.25 268.003 378.25 269.25V279.75C378.25 280.997 377.247 282 376 282C374.753 282 373.75 280.997 373.75 279.75V269.25C373.75 268.003 374.753 267 376 267ZM379 288C379 289.659 377.659 291 376 291C374.341 291 373 289.659 373 288C373 286.341 374.341 285 376 285C377.659 285 379 286.341 379 288Z" fill="#0B0A0C"/>
</g>
<defs>
<clipPath id="clip0_1_247">
<rect width="42" height="48" fill="white" transform="translate(352 573)"/>
</clipPath>
<clipPath id="clip1_1_247">
<rect width="48" height="48" fill="white" transform="translate(352 255)"/>
</clipPath>
</defs>
</svg>
