<svg width="712" height="651" viewBox="0 0 712 651" fill="none" xmlns="http://www.w3.org/2000/svg">
<path d="M356.52 13.6469C359.683 12.8083 361.567 9.56636 360.727 6.40582C359.888 3.24528 356.644 1.36296 353.481 2.20156C350.318 3.04015 348.434 6.2821 349.273 9.44264C350.113 12.6032 353.357 14.4855 356.52 13.6469Z" fill="#F5F5F5"/>
<path d="M356.814 644.263V640.548H354.999C330.667 640.548 310.873 620.762 310.873 596.448C310.873 572.134 330.667 552.355 354.999 552.355H356.814V483.607C382.308 482.649 402.756 461.622 402.756 435.915C402.756 410.208 382.308 389.188 356.814 388.23V321.847H354.999C330.667 321.847 310.873 302.068 310.873 277.754C310.873 253.44 330.667 233.654 354.999 233.654H356.814V164.906C382.308 163.948 402.756 142.928 402.756 117.221C402.756 91.5141 382.308 70.4869 356.814 69.5292V4.07516C356.814 3.07387 356.001 2.26123 354.999 2.26123C353.997 2.26123 353.184 3.07387 353.184 4.07516V73.1208H354.999C379.331 73.1208 399.125 92.9072 399.125 117.221C399.125 141.535 379.331 161.314 354.999 161.314H353.184V230.062C327.69 231.02 307.242 252.047 307.242 277.754C307.242 303.461 327.69 324.489 353.184 325.439V391.822H354.999C379.331 391.822 399.125 411.601 399.125 435.915C399.125 460.229 379.331 480.015 354.999 480.015H353.184V548.763C327.69 549.721 307.242 570.741 307.242 596.448C307.242 622.155 327.69 643.182 353.184 644.14V644.263H356.814Z" fill="#F5F5F5"/>
<path d="M12.7912 163.102C13.4414 159.897 11.3686 156.772 8.16147 156.123C4.95434 155.473 1.82739 157.544 1.17723 160.749C0.527063 163.954 2.59989 167.078 5.80701 167.728C9.01413 168.378 12.1411 166.306 12.7912 163.102Z" fill="#F5F5F5"/>
<path d="M305.418 163.738H8.69769C7.79075 163.738 7.05469 162.925 7.05469 161.924C7.05469 160.922 7.79075 160.11 8.69769 160.11H305.412C306.319 160.11 307.055 160.922 307.055 161.924C307.055 162.925 306.319 163.738 305.412 163.738H305.418Z" fill="#F5F5F5"/>
<path d="M703.257 326.645C705.571 324.333 705.571 320.584 703.257 318.272C700.943 315.96 697.191 315.96 694.877 318.272C692.563 320.584 692.563 324.333 694.877 326.645C697.191 328.958 700.943 328.958 703.257 326.645Z" fill="#F5F5F5"/>
<path d="M697.357 324.271H400.643C399.736 324.271 399 323.458 399 322.457C399 321.456 399.736 320.643 400.643 320.643H697.357C698.264 320.643 699 321.456 699 322.457C699 323.458 698.264 324.271 697.357 324.271Z" fill="#F5F5F5"/>
<path d="M707.257 646.56C709.571 644.247 709.571 640.499 707.257 638.187C704.943 635.874 701.191 635.874 698.877 638.187C696.563 640.499 696.563 644.248 698.877 646.56C701.191 648.872 704.943 648.872 707.257 646.56Z" fill="#F5F5F5"/>
<path d="M701.357 644.185H404.643C403.736 644.185 403 643.372 403 642.371C403 641.37 403.736 640.557 404.643 640.557H701.357C702.264 640.557 703 641.37 703 642.371C703 643.372 702.264 644.185 701.357 644.185Z" fill="#F5F5F5"/>
<path d="M12.7912 482.995C13.4414 479.79 11.3686 476.666 8.16149 476.016C4.95437 475.367 1.82739 477.438 1.17723 480.642C0.527063 483.847 2.59991 486.972 5.80703 487.621C9.01415 488.271 12.1411 486.2 12.7912 482.995Z" fill="#F5F5F5"/>
<path d="M305.418 483.621H8.69769C7.79075 483.621 7.05469 482.809 7.05469 481.807C7.05469 480.806 7.79075 479.993 8.69769 479.993H305.412C306.319 479.993 307.055 480.806 307.055 481.807C307.055 482.809 306.319 483.621 305.412 483.621H305.418Z" fill="#F5F5F5"/>
<path d="M352 92C353.659 92 355 93.3406 355 95V105.5H349V95C349 93.3406 350.341 92 352 92ZM340 98C340 96.3406 341.341 95 343 95C344.659 95 346 96.3406 346 98V105.5H340V98ZM358 98C358 96.3406 359.341 95 361 95C362.659 95 364 96.3406 364 98V107C364 108.659 362.659 110 361 110C359.341 110 358 108.659 358 107V98ZM367 104C367 102.341 368.341 101 370 101C371.659 101 373 102.341 373 104V110C373 111.659 371.659 113 370 113C368.341 113 367 111.659 367 110V104ZM358 112.25V112.194C358.881 112.7 359.903 113 361 113C362.237 113 363.381 112.625 364.338 111.987C365.153 114.322 367.384 116 370 116C371.097 116 372.119 115.709 373 115.194V116C373 120.903 370.647 125.263 367 128V137C367 138.659 365.659 140 364 140H349C347.341 140 346 138.659 346 137V129.65C344.378 128.909 342.887 127.888 341.603 126.603L340.516 125.516C338.266 123.266 337 120.209 337 117.031V114.5C337 111.191 339.691 108.5 343 108.5H351.25C353.322 108.5 355 110.178 355 112.25C355 114.322 353.322 116 351.25 116H346C345.175 116 344.5 116.675 344.5 117.5C344.5 118.325 345.175 119 346 119H351.25C354.981 119 358 115.981 358 112.25Z" fill="#0B0A0C"/>
<path d="M335.462 441.206L352.403 457.022C353.106 457.678 354.034 458.043 355 458.043C355.966 458.043 356.894 457.678 357.597 457.022L374.537 441.206C377.388 438.553 379 434.831 379 430.94V430.397C379 423.843 374.266 418.256 367.806 417.178C363.531 416.465 359.181 417.862 356.125 420.918L355 422.043L353.875 420.918C350.819 417.862 346.469 416.465 342.194 417.178C335.734 418.256 331 423.843 331 430.397V430.94C331 434.831 332.612 438.553 335.462 441.206Z" fill="#0B0A0C"/>
<g clip-path="url(#clip0_1_363)">
<path d="M362.5 577.5C362.5 575.016 360.484 573 358 573C355.516 573 353.5 575.016 353.5 577.5C353.5 579.984 355.516 582 358 582C360.484 582 362.5 579.984 362.5 577.5ZM344.284 589.453C345.212 588.525 346.478 588 347.8 588C347.978 588 348.156 588.009 348.325 588.028L345.4 596.812C344.528 599.438 345.559 602.325 347.912 603.797L355.994 608.85L353.612 617.175C353.153 618.769 354.081 620.428 355.675 620.887C357.269 621.347 358.928 620.419 359.387 618.825L362.078 609.412C362.631 607.481 361.834 605.419 360.137 604.359L354.812 601.031L357.709 593.306L358.187 594.459C359.594 597.816 362.866 600 366.503 600H368.5C370.159 600 371.5 598.659 371.5 597C371.5 595.341 370.159 594 368.5 594H366.503C365.294 594 364.197 593.269 363.737 592.153L363.147 590.747C361.778 587.456 359.012 584.944 355.6 583.894L351.034 582.487C349.994 582.169 348.906 582 347.809 582C344.903 582 342.109 583.153 340.056 585.216L337.881 587.381C336.709 588.553 336.709 590.456 337.881 591.628C339.053 592.8 340.956 592.8 342.128 591.628L344.294 589.463L344.284 589.453ZM341.05 606H335.5C333.841 606 332.5 607.341 332.5 609C332.5 610.659 333.841 612 335.5 612H342.025C343.806 612 345.419 610.95 346.141 609.328L347.219 606.9L346.328 606.338C344.687 605.316 343.469 603.825 342.775 602.128L341.05 606Z" fill="#0B0A0C"/>
</g>
<g clip-path="url(#clip1_1_363)">
<path d="M355 303C368.256 303 379 292.256 379 279C379 265.744 368.256 255 355 255C341.744 255 331 265.744 331 279C331 292.256 341.744 303 355 303ZM355 267C356.247 267 357.25 268.003 357.25 269.25V279.75C357.25 280.997 356.247 282 355 282C353.753 282 352.75 280.997 352.75 279.75V269.25C352.75 268.003 353.753 267 355 267ZM358 288C358 289.659 356.659 291 355 291C353.341 291 352 289.659 352 288C352 286.341 353.341 285 355 285C356.659 285 358 286.341 358 288Z" fill="#0B0A0C"/>
</g>
<defs>
<clipPath id="clip0_1_363">
<rect width="42" height="48" fill="white" transform="translate(331 573)"/>
</clipPath>
<clipPath id="clip1_1_363">
<rect width="48" height="48" fill="white" transform="translate(331 255)"/>
</clipPath>
</defs>
</svg>
